<?xml version="1.0" standalone="no"?>
<!DOCTYPE svg PUBLIC "-//W3C//DTD SVG 20010904//EN"
 "http://www.w3.org/TR/2001/REC-SVG-20010904/DTD/svg10.dtd">
<svg version="1.0" xmlns="http://www.w3.org/2000/svg"
 width="1500.000000pt" height="500.000000pt" viewBox="0 0 1500.000000 500.000000"
 preserveAspectRatio="xMidYMid meet">

<g transform="translate(0.000000,500.000000) scale(0.100000,-0.100000)"
fill="#000000" stroke="none">
<path d="M0 2500 l0 -2500 7500 0 7500 0 0 2500 0 2500 -7500 0 -7500 0 0
-2500z m7485 1773 c-4 -60 -12 -146 -18 -193 l-12 -85 -242 -3 c-134 -1 -243
-6 -243 -10 0 -4 -38 -306 -85 -672 -85 -664 -195 -1530 -195 -1536 0 -2 -65
-4 -144 -4 -167 0 -169 1 -171 88 -1 31 67 599 152 1262 84 663 153 1208 153
1211 0 3 9 15 20 27 21 22 23 22 406 22 l384 0 -5 -107z m490 25 c-2 -46 -74
-630 -160 -1298 -85 -668 -155 -1218 -155 -1222 0 -5 -72 -8 -160 -8 l-160 0
0 62 c1 55 305 2502 315 2536 3 9 45 12 164 12 l159 0 -3 -82z m636 66 c15
-18 15 -153 0 -258 -16 -114 -9 -111 -283 -111 l-231 0 1 81 c1 74 14 208 28
277 l6 27 233 0 c199 0 234 -2 246 -16z m-1186 -551 c-3 -71 -230 -1889 -250
-2010 l-6 -33 -160 0 -160 0 2 53 c2 49 244 2005 255 2055 4 22 7 22 164 22
l159 0 -4 -87z m907 -1670 c36 -32 17 -306 -24 -350 -21 -23 -25 -23 -254 -23
l-232 0 3 90 c4 85 19 227 30 278 l5 22 227 0 c197 0 229 -2 245 -17z m-3137
-821 c6 -4 17 -27 25 -52 8 -25 19 -45 25 -45 5 0 16 18 25 40 23 61 28 65 76
65 39 0 46 -3 54 -26 11 -28 14 -295 4 -368 -6 -44 -8 -46 -40 -46 -24 0 -34
5 -39 20 -8 26 -21 26 -28 0 -4 -16 -14 -20 -50 -20 -37 0 -47 4 -52 20 -3 11
-10 20 -15 20 -4 0 -10 -9 -13 -20 -4 -15 -14 -20 -41 -20 l-36 0 -2 78 c-4
153 4 347 16 354 6 4 27 8 46 8 19 0 40 -4 45 -8z m582 0 c11 -7 63 -356 63
-418 0 -11 -9 -14 -37 -12 -33 3 -38 7 -44 36 -13 63 -40 63 -56 2 -8 -31 -13
-35 -47 -38 l-37 -3 5 43 c36 285 51 384 60 390 15 10 78 10 93 0z m449 -26
c21 -24 24 -37 24 -106 0 -53 -5 -91 -16 -114 -16 -32 -16 -39 0 -100 21 -86
21 -86 -19 -86 -30 0 -37 4 -50 36 -17 40 -35 37 -35 -7 0 -27 -2 -29 -40 -29
l-40 0 0 214 c0 162 3 216 13 220 6 3 41 4 76 3 55 -3 67 -7 87 -31z m304 24
c4 0 13 -29 20 -65 17 -93 26 -87 54 37 10 46 76 45 76 -1 0 -31 -25 -232 -41
-333 l-11 -68 -53 0 c-42 0 -55 4 -59 18 -3 9 -14 89 -25 177 -12 88 -23 177
-26 197 -5 37 9 52 43 42 8 -2 17 -4 22 -4z m518 4 c18 -5 22 -13 20 -33 -3
-22 -9 -27 -43 -31 l-40 -5 -3 -52 c-3 -56 -4 -55 63 -65 14 -2 20 -11 20 -27
0 -20 -8 -26 -40 -35 -39 -11 -40 -12 -43 -63 -3 -56 -4 -55 63 -65 13 -2 21
-12 23 -31 l3 -27 -85 0 -86 0 0 214 c0 162 3 216 13 219 18 8 108 8 135 1z
m418 -28 c23 -26 24 -33 24 -192 0 -162 0 -165 -25 -189 -21 -22 -33 -25 -100
-25 l-75 0 0 214 c0 162 3 216 13 220 6 3 41 4 76 3 55 -3 67 -7 87 -31z m710
24 c41 -16 53 -39 54 -102 l0 -58 -34 0 c-31 0 -34 3 -42 42 -10 47 -28 60
-38 26 -7 -30 -8 -216 0 -245 10 -38 30 -26 40 25 7 37 14 48 30 50 37 5 57
-25 50 -77 -9 -66 -37 -91 -102 -91 -36 0 -59 6 -75 19 -23 19 -24 24 -27 183
-3 176 3 202 48 225 31 16 60 16 96 3z m461 -25 c22 -25 23 -34 23 -191 0
-162 0 -165 -25 -189 -34 -34 -124 -36 -155 -3 -18 20 -20 35 -20 189 0 92 3
175 6 184 19 49 132 56 171 10z m426 7 c21 -22 22 -30 22 -198 0 -173 0 -176
-24 -195 -18 -15 -39 -19 -97 -19 l-74 0 0 214 c0 162 3 216 13 220 6 3 40 4
75 3 49 -2 67 -8 85 -25z m405 22 c18 -5 22 -13 20 -33 -3 -22 -9 -27 -43 -31
l-40 -5 -3 -49 c-4 -54 5 -66 51 -66 23 0 27 -4 27 -29 0 -26 -4 -30 -40 -36
l-40 -7 0 -54 c0 -57 -1 -56 65 -66 14 -2 20 -11 20 -28 0 -24 -2 -25 -82 -28
l-83 -3 0 215 c0 162 3 216 13 219 18 8 108 8 135 1z m413 -23 c25 -25 29 -37
29 -84 0 -52 -2 -55 -27 -60 -37 -7 -53 8 -53 49 0 36 -17 54 -31 33 -5 -8 -8
-27 -7 -44 2 -23 11 -34 38 -47 63 -31 80 -60 80 -137 0 -97 -20 -121 -99
-121 -78 0 -96 19 -96 103 l0 62 35 0 c34 0 35 -1 40 -44 6 -57 30 -68 30 -14
0 46 -6 56 -47 77 -49 25 -63 52 -63 123 0 100 25 130 108 132 24 1 42 -7 63
-28z"/>
<path d="M6147 1213 c-11 -10 -8 -53 3 -53 6 0 10 14 10 30 0 31 -2 35 -13 23z"/>
<path d="M7379 1213 c-12 -30 -7 -212 6 -233 16 -26 25 19 25 132 0 119 -11
153 -31 101z"/>
<path d="M8542 1233 c-12 -30 -6 -253 7 -266 9 -9 14 -8 21 3 11 16 14 239 4
264 -8 21 -23 20 -32 -1z"/>
<path d="M8975 1210 c-7 -12 1 -199 9 -208 11 -10 16 4 22 65 10 96 -8 180
-31 143z"/>
</g>
</svg>
